<?xml version="1.0" encoding="UTF-8"?>
<svg id="Layer_1" xmlns="http://www.w3.org/2000/svg" xmlns:xlink="http://www.w3.org/1999/xlink" version="1.1" viewBox="0 0 800 800">
  <!-- Generator: Adobe Illustrator 30.1.0, SVG Export Plug-In . SVG Version: 2.1.1 Build 136)  -->
  <defs>
    <style>
      .st0 {
        fill: none;
      }

      .st1 {
        mask: url(#mask);
      }

      .st2 {
        filter: url(#luminosity-noclip);
      }

      .st3 {
        fill: url(#linear-gradient);
      }

      .st4 {
        clip-path: url(#clippath);
      }
    </style>
    <filter id="luminosity-noclip" x="-328.62" y="-327.62" width="1455.73" height="1455.73" color-interpolation-filters="sRGB" filterUnits="userSpaceOnUse">
      <feFlood flood-color="#fff" result="bg"/>
      <feBlend in="SourceGraphic" in2="bg"/>
    </filter>
    <mask id="mask" x="-328.62" y="-327.62" width="1455.73" height="1455.73" maskUnits="userSpaceOnUse">
      <g class="st2">
        <g id="Layer_2">
          <path d="M400,85.63l-62.87,62.87v125.75l62.87-62.87v-125.75ZM400,211.38v125.75l62.87-62.87v-125.75l-62.87,62.87ZM462.87,274.25v125.75l62.87-62.87v-125.75l-62.87,62.87ZM337.13,274.25l-62.87-62.87v125.75l62.87,62.87v-125.75Z"/>
          <path d="M198.79,483.94l-37.73,37.73v75.47l37.73-37.73v-75.47h0ZM198.79,559.41v75.47l37.73-37.73v-75.47l-37.73,37.73h0ZM236.52,597.14v75.47l37.73-37.73v-75.47l-37.73,37.73ZM161.05,597.14l-37.73-37.73v75.47l37.73,37.73v-75.47Z"/>
          <path d="M400,483.94l-37.73,37.73v75.47l37.73-37.73v-75.47h0ZM400,559.41v75.47l37.73-37.73v-75.47l-37.73,37.73h0ZM437.73,597.14v75.47l37.73-37.73v-75.47l-37.73,37.73ZM362.27,597.14l-37.73-37.73v75.47l37.73,37.73v-75.47Z"/>
          <path d="M601.21,483.94l-37.73,37.73v75.47l37.73-37.73v-75.47h0ZM601.21,559.41v75.47l37.73-37.73v-75.47l-37.73,37.73h0ZM638.95,597.14v75.47l37.73-37.73v-75.47l-37.73,37.73ZM563.48,597.14l-37.73-37.73v75.47l37.73,37.73v-75.47Z"/>
        </g>
      </g>
    </mask>
    <clipPath id="clippath">
      <path class="st0" d="M147.89,4C68.2,4,3,69.2,3,148.89v502.71c0,79.7,65.2,144.9,144.89,144.9h502.72c79.69,0,144.88-65.2,144.88-144.9V148.89c0-79.69-65.19-144.89-144.88-144.89H147.89Z"/>
    </clipPath>
    <linearGradient id="linear-gradient" x1="-1117.68" y1="801.01" x2="-1116.68" y2="801.01" gradientTransform="translate(266607.15 1522100.05) rotate(44.44) scale(1123.68 -1123.68)" gradientUnits="userSpaceOnUse">
      <stop offset="0" stop-color="#0098dc"/>
      <stop offset="1" stop-color="#ffe0a3"/>
    </linearGradient>
  </defs>
  <g class="st1">
    <g id="Layer_11">
      <g class="st4">
        <path class="st3" d="M392.18-327.62l734.93,720.8-720.81,734.93L-328.62,407.31,392.18-327.62Z"/>
      </g>
    </g>
  </g>
</svg>